<svg version="1.1" xmlns="http://www.w3.org/2000/svg" xmlns:xlink="http://www.w3.org/1999/xlink" width="1536" height="1536" viewBox="0 0 1536 1536"><rect width="100%" height="100%" fill="#FFFFFF"/><path stroke="none" fill="#000000" fill-rule="evenodd" d="M735.50,1385.84C717.16,1384.98 711.75,1384.34 707.37,1382.51C705.38,1381.68 702.94,1381.00 701.94,1381.00C700.93,1381.00 698.63,1380.13 696.81,1379.07C694.99,1378.01 691.70,1376.82 689.50,1376.43C685.59,1375.73 676.00,1370.28 676.00,1368.77C676.00,1368.34 675.34,1368.00 674.53,1368.00C673.71,1368.00 672.30,1366.54 671.39,1364.75C670.47,1362.96 669.41,1361.28 669.03,1361.00C667.31,1359.75 658.79,1338.76 654.84,1326.00C653.22,1320.78 650.81,1311.78 649.48,1306.00C648.16,1300.22 646.16,1291.94 645.04,1287.59C643.92,1283.24 643.00,1278.84 643.00,1277.80C643.00,1276.77 642.38,1274.93 641.61,1273.71C640.85,1272.50 639.93,1269.70 639.56,1267.50C637.85,1257.14 630.91,1242.85 625.24,1238.00C623.73,1236.71 620.31,1233.71 617.64,1231.33C614.97,1228.95 612.18,1227.00 611.43,1227.00C610.69,1227.00 603.15,1223.62 594.66,1219.50C586.18,1215.38 578.92,1212.00 578.52,1212.00C578.13,1212.00 576.50,1211.07 574.90,1209.93C573.31,1208.79 572.00,1208.15 572.00,1208.49C572.00,1208.84 569.41,1207.79 566.25,1206.16C557.40,1201.61 552.08,1199.33 545.11,1197.08C541.60,1195.95 538.21,1194.59 537.58,1194.07C536.07,1192.81 522.47,1190.00 517.92,1190.00C512.19,1190.00 502.81,1192.01 498.86,1194.09C496.86,1195.14 494.68,1196.00 494.02,1196.00C493.35,1196.00 491.61,1196.84 490.15,1197.87C488.69,1198.89 484.37,1201.44 480.55,1203.53C475.02,1206.55 457.87,1218.33 452.45,1222.83C451.88,1223.31 450.96,1223.88 450.41,1224.10C449.86,1224.32 445.48,1226.97 440.68,1230.00C435.87,1233.03 431.10,1235.97 430.08,1236.54C429.05,1237.11 427.60,1238.09 426.85,1238.71C426.11,1239.33 423.02,1240.81 420.00,1242.00C416.97,1243.19 413.82,1244.75 413.00,1245.46C410.76,1247.41 401.47,1249.78 393.00,1250.56C388.88,1250.94 384.44,1251.35 383.15,1251.47C380.36,1251.73 370.77,1248.01 368.17,1245.65C367.16,1244.74 366.03,1244.00 365.64,1244.00C365.26,1244.00 362.66,1242.20 359.88,1240.00C357.10,1237.80 354.22,1236.00 353.48,1236.00C352.75,1236.00 351.54,1235.44 350.81,1234.75C350.08,1234.06 346.33,1230.81 342.49,1227.52C332.28,1218.78 319.92,1206.30 315.24,1200.00C312.99,1196.97 309.05,1192.25 306.48,1189.50C303.91,1186.75 301.07,1183.38 300.16,1182.00C299.26,1180.62 297.05,1177.55 295.26,1175.17C293.47,1172.79 292.00,1170.30 292.00,1169.64C292.00,1168.98 290.42,1165.99 288.50,1163.00C286.57,1160.01 285.00,1156.31 285.00,1154.78C285.00,1153.25 284.55,1152.00 284.00,1152.00C283.45,1152.00 283.00,1149.76 283.00,1147.02C283.00,1141.11 285.12,1128.00 286.08,1128.00C286.44,1128.00 287.04,1126.31 287.41,1124.25C287.77,1122.19 288.92,1118.92 289.97,1117.00C291.02,1115.08 292.59,1111.92 293.45,1110.00C294.32,1108.08 296.13,1104.47 297.47,1102.00C298.82,1099.53 300.78,1095.67 301.84,1093.44C302.90,1091.20 304.39,1088.73 305.16,1087.94C306.73,1086.31 314.63,1073.43 317.54,1067.75C318.59,1065.69 319.80,1064.00 320.23,1064.00C320.65,1064.00 321.00,1063.49 321.00,1062.86C321.00,1062.24 323.07,1058.59 325.59,1054.76C328.11,1050.93 330.99,1045.48 331.99,1042.65C332.98,1039.82 334.64,1035.54 335.68,1033.15C340.48,1022.07 333.11,995.38 313.89,954.31C312.30,950.91 311.00,947.84 311.00,947.50C311.00,945.29 300.82,926.41 296.80,921.15C292.08,914.98 284.76,909.03 279.22,906.86C273.81,904.74 257.61,900.14 253.50,899.56C252.40,899.40 250.38,899.01 249.00,898.67C247.62,898.34 244.93,897.88 243.00,897.65C241.07,897.41 238.38,896.78 237.00,896.24C235.62,895.71 231.87,894.94 228.65,894.55C225.42,894.15 220.70,893.22 218.15,892.48C215.59,891.74 212.15,890.94 210.49,890.69C205.60,889.97 189.58,885.84 188.50,885.02C187.95,884.61 185.03,883.48 182.00,882.52C178.97,881.55 174.47,879.51 172.00,877.97C169.53,876.42 165.81,874.37 163.75,873.40C161.69,872.42 160.00,871.26 160.00,870.81C160.00,870.37 159.32,870.00 158.50,870.00C157.68,870.00 157.00,869.52 157.00,868.94C157.00,868.36 156.61,868.13 156.12,868.42C155.64,868.72 154.96,867.15 154.61,864.94C154.25,862.73 153.30,860.67 152.49,860.36C151.68,860.05 150.34,857.53 149.52,854.77C148.70,852.00 147.65,849.24 147.19,848.62C145.71,846.65 143.10,838.68 142.08,833.00C141.54,829.98 140.39,823.90 139.53,819.50C137.72,810.16 137.36,777.64 138.98,769.10C139.54,766.14 140.03,761.88 140.06,759.61C140.11,756.16 141.74,748.93 144.60,739.50C144.93,738.40 145.45,736.18 145.74,734.56C146.04,732.94 147.02,730.82 147.92,729.86C148.81,728.89 150.43,725.49 151.50,722.30C153.85,715.30 159.40,708.97 165.86,705.94C168.41,704.75 171.62,703.01 173.00,702.09C175.80,700.22 185.17,696.46 189.00,695.67C191.82,695.09 201.29,692.60 211.00,689.90C217.76,688.01 230.52,685.39 240.00,683.94C247.92,682.72 257.32,680.62 258.61,679.77C259.23,679.38 262.38,678.76 265.61,678.41C268.85,678.05 272.40,677.21 273.50,676.54C274.60,675.87 276.85,674.99 278.50,674.59C282.12,673.72 292.88,666.88 295.57,663.75C302.54,655.65 310.49,640.29 316.14,624.03C317.19,621.02 319.83,614.86 322.02,610.34C324.21,605.82 326.00,601.84 326.00,601.50C326.00,600.95 327.75,596.81 331.50,588.50C332.24,586.85 333.40,583.25 334.06,580.50C334.73,577.75 335.66,575.07 336.14,574.55C336.61,574.03 337.00,572.38 337.00,570.88C337.00,569.39 337.49,568.00 338.09,567.80C339.79,567.24 341.86,553.08 340.80,549.25C340.31,547.45 340.18,545.52 340.52,544.97C341.22,543.83 338.49,533.76 336.46,530.00C335.71,528.62 334.19,525.48 333.08,523.00C330.19,516.58 322.62,503.30 320.36,500.70C317.09,496.94 304.13,473.97 297.96,461.00C295.73,456.32 293.26,451.31 292.46,449.85C291.65,448.39 291.00,446.46 291.00,445.56C291.00,444.67 289.87,441.70 288.49,438.97C285.06,432.21 284.33,424.15 286.42,416.00C288.01,409.79 293.44,397.04 294.94,396.00C295.33,395.73 296.90,393.19 298.42,390.37C300.99,385.61 308.54,376.61 321.49,362.88C324.40,359.79 331.06,353.63 336.29,349.18C341.51,344.74 347.07,339.90 348.64,338.43C350.22,336.96 352.90,334.80 354.62,333.63C369.98,323.14 376.09,319.98 386.99,316.86C393.94,314.87 400.00,314.43 400.00,315.90C400.00,316.39 401.91,317.02 404.25,317.30C411.66,318.17 426.40,323.03 428.00,325.14C428.27,325.50 432.07,327.67 436.43,329.97C440.80,332.26 445.47,335.01 446.82,336.07C448.17,337.13 449.81,338.00 450.48,338.00C451.15,338.00 452.50,338.90 453.50,340.00C454.50,341.10 455.92,342.00 456.65,342.00C457.39,342.00 458.00,342.38 458.00,342.84C458.00,343.30 459.01,344.16 460.25,344.75C461.49,345.34 463.62,346.74 465.00,347.86C470.99,352.75 486.90,363.24 491.25,365.16C493.86,366.32 496.00,367.62 496.00,368.06C496.00,368.49 497.69,369.39 499.75,370.05C501.81,370.72 504.07,371.71 504.77,372.27C506.42,373.58 509.69,373.99 519.50,374.14C528.99,374.28 539.28,371.90 546.79,367.84C549.71,366.26 552.86,364.82 553.80,364.63C554.73,364.45 557.17,363.55 559.22,362.65C561.26,361.74 563.48,361.00 564.14,361.00C565.40,361.00 576.15,357.02 581.75,354.47C585.56,352.75 590.48,350.63 594.00,349.19C608.22,343.41 623.93,334.53 623.97,332.25C623.99,331.56 624.39,331.00 624.86,331.00C626.47,331.00 631.27,325.52 632.74,322.00C633.55,320.07 635.22,316.25 636.47,313.50C637.72,310.75 639.07,306.93 639.49,305.00C639.90,303.07 640.52,301.05 640.86,300.50C642.00,298.67 643.97,292.52 643.98,290.74C643.99,289.77 645.09,284.37 646.43,278.74C647.77,273.11 649.12,266.93 649.43,265.00C650.05,261.14 653.96,244.86 656.51,235.50C657.41,232.20 659.07,227.93 660.20,226.00C661.32,224.07 662.86,220.44 663.61,217.93C664.36,215.41 666.78,210.56 668.99,207.14C671.19,203.73 673.00,200.59 673.00,200.16C673.00,198.31 683.00,190.06 688.23,187.58C691.38,186.09 694.24,184.43 694.58,183.88C694.91,183.33 696.50,183.17 698.10,183.52C699.69,183.87 701.00,183.77 701.00,183.29C701.00,182.82 701.79,182.38 702.75,182.33C703.71,182.28 706.75,181.72 709.50,181.09C733.47,175.58 777.95,176.04 803.75,182.06C811.25,183.81 815.66,185.49 817.00,187.11C817.27,187.44 819.08,188.00 821.00,188.35C826.30,189.33 836.41,198.09 839.44,204.34C840.82,207.18 842.34,210.18 842.83,211.00C843.31,211.82 844.40,214.07 845.26,216.00C846.11,217.93 847.75,221.55 848.90,224.07C850.06,226.58 851.00,229.17 851.00,229.83C851.00,230.49 851.45,231.81 851.99,232.76C852.54,233.72 853.68,237.43 854.52,241.00C855.36,244.57 857.17,252.22 858.54,258.00C859.91,263.77 861.20,269.40 861.41,270.50C861.61,271.60 862.73,275.37 863.88,278.89C865.04,282.40 866.25,287.35 866.58,289.89C867.34,295.68 873.92,315.49 876.92,321.00C878.59,324.06 888.49,334.00 889.86,334.00C890.41,334.00 891.46,334.56 892.21,335.25C894.75,337.61 899.92,341.00 900.97,341.00C901.55,341.00 902.81,341.44 903.76,341.98C906.63,343.60 922.99,351.00 923.70,351.00C924.07,351.00 926.20,351.84 928.43,352.86C937.14,356.84 944.62,359.89 947.26,360.54C948.78,360.92 950.27,361.62 950.57,362.11C950.87,362.60 951.90,363.00 952.85,363.00C953.80,363.00 956.34,363.90 958.50,365.00C960.66,366.10 962.78,367.00 963.22,367.00C963.65,367.00 966.34,368.12 969.19,369.50C972.04,370.87 975.53,372.00 976.94,372.00C978.36,372.00 981.09,372.49 983.01,373.08C990.69,375.46 1005.07,373.53 1010.68,369.36C1012.43,368.06 1014.15,367.00 1014.49,367.00C1016.14,367.00 1024.26,362.69 1028.14,359.75C1030.54,357.93 1034.61,355.22 1037.18,353.72C1039.75,352.22 1042.59,350.27 1043.48,349.38C1045.16,347.70 1060.92,337.00 1061.71,337.00C1061.96,337.00 1064.04,335.49 1066.33,333.65C1068.62,331.82 1076.18,327.34 1083.13,323.70C1102.62,313.50 1118.45,311.15 1130.85,316.61C1136.63,319.15 1144.18,323.18 1147.88,325.69C1149.75,326.96 1151.69,328.00 1152.18,328.00C1153.23,328.00 1153.96,328.54 1160.00,333.78C1162.47,335.93 1165.22,338.10 1166.11,338.60C1168.51,339.94 1179.35,349.74 1185.29,355.93C1188.16,358.92 1192.76,363.64 1195.52,366.43C1201.37,372.35 1208.00,380.36 1208.00,381.51C1208.00,381.95 1209.24,383.92 1210.75,385.89C1214.63,390.94 1221.05,401.94 1222.19,405.50C1223.99,411.12 1224.81,421.92 1223.76,426.28C1223.21,428.60 1222.64,431.18 1222.51,432.00C1222.38,432.82 1222.04,434.18 1221.75,435.00C1221.46,435.82 1220.72,438.39 1220.09,440.70C1219.46,443.01 1216.49,449.88 1213.48,455.96C1210.46,462.05 1208.00,467.27 1208.00,467.58C1208.00,467.88 1206.82,469.68 1205.38,471.57C1203.94,473.46 1203.05,475.00 1203.40,475.00C1203.75,475.00 1202.45,477.30 1200.52,480.11C1198.58,482.92 1196.99,485.74 1196.97,486.36C1196.96,486.99 1195.61,488.81 1193.97,490.42C1192.34,492.02 1190.99,494.05 1190.98,494.92C1190.97,495.79 1190.08,497.62 1189.00,499.00C1187.92,500.38 1187.03,502.01 1187.02,502.63C1187.01,503.25 1186.33,504.31 1185.51,504.99C1184.69,505.67 1184.25,506.59 1184.53,507.04C1184.81,507.49 1184.57,508.15 1183.99,508.50C1181.88,509.81 1172.01,530.83 1172.00,534.05C1172.00,534.90 1171.49,536.11 1170.86,536.74C1169.18,538.42 1168.56,555.56 1169.94,562.24C1170.60,565.39 1171.07,568.09 1171.00,568.24C1170.92,568.38 1172.22,571.54 1173.89,575.26C1175.56,578.98 1177.82,584.83 1178.90,588.26C1181.34,595.95 1183.34,601.34 1184.00,602.00C1185.06,603.06 1188.00,610.14 1188.00,611.63C1188.00,612.49 1188.62,614.39 1189.38,615.85C1191.16,619.27 1192.15,621.58 1196.57,632.50C1198.57,637.45 1200.78,642.17 1201.47,643.00C1202.16,643.83 1203.00,645.65 1203.34,647.07C1203.67,648.48 1204.86,650.68 1205.97,651.97C1207.09,653.25 1208.00,654.71 1208.00,655.20C1208.00,655.68 1208.47,656.63 1209.04,657.29C1209.61,657.96 1211.38,660.33 1212.98,662.56C1215.90,666.63 1228.39,675.00 1231.54,675.00C1232.43,675.00 1236.38,676.08 1240.32,677.40C1244.27,678.72 1251.78,680.58 1257.00,681.53C1262.22,682.48 1269.20,683.89 1272.50,684.66C1275.80,685.42 1280.53,686.31 1283.00,686.62C1285.47,686.93 1287.95,687.52 1288.50,687.93C1289.45,688.64 1293.95,690.03 1306.75,693.60C1319.68,697.21 1330.57,701.88 1335.50,705.94C1336.60,706.84 1339.19,708.35 1341.25,709.28C1343.31,710.21 1345.00,711.45 1345.00,712.05C1345.00,712.65 1346.07,714.57 1347.38,716.32C1348.70,718.07 1350.10,720.62 1350.51,722.00C1350.91,723.38 1351.60,724.95 1352.04,725.50C1352.48,726.05 1353.78,728.98 1354.94,732.00C1356.11,735.03 1357.46,738.40 1357.97,739.50C1359.55,742.97 1361.75,752.21 1362.97,760.50C1364.91,773.70 1364.58,813.03 1362.41,825.65C1361.21,832.65 1357.67,843.80 1354.48,850.62C1352.56,854.70 1351.00,858.31 1351.00,858.64C1351.00,860.54 1345.09,868.07 1342.85,869.03C1341.39,869.65 1339.97,871.02 1339.69,872.08C1339.42,873.13 1338.36,874.29 1337.34,874.66C1336.33,875.02 1334.31,876.15 1332.85,877.16C1331.39,878.17 1329.47,879.00 1328.60,879.00C1327.72,879.00 1327.00,879.39 1327.00,879.86C1327.00,881.53 1297.74,889.96 1291.84,889.99C1290.37,889.99 1284.52,891.16 1278.84,892.57C1268.57,895.12 1263.08,896.29 1253.50,897.98C1243.04,899.83 1235.06,902.00 1231.59,903.95C1229.62,905.06 1228.00,905.76 1228.00,905.51C1228.00,905.26 1226.04,906.10 1223.64,907.37C1217.82,910.47 1209.90,918.58 1204.55,926.92C1200.03,933.97 1192.00,950.03 1192.00,952.01C1192.00,952.63 1190.03,957.27 1187.61,962.32C1184.04,969.79 1181.37,976.41 1180.46,980.00C1180.39,980.27 1179.81,981.77 1179.17,983.32C1178.52,984.86 1178.00,986.75 1178.00,987.51C1178.00,988.26 1177.59,989.14 1177.09,989.45C1176.06,990.08 1171.57,1004.08 1170.17,1011.00C1167.92,1022.07 1169.15,1031.74 1174.02,1041.54C1175.66,1044.82 1176.99,1048.21 1177.00,1049.08C1177.00,1049.94 1178.12,1051.71 1179.50,1053.00C1180.88,1054.29 1182.00,1056.25 1182.00,1057.35C1182.00,1058.44 1182.61,1060.05 1183.35,1060.92C1184.09,1061.79 1185.77,1064.53 1187.06,1067.00C1188.36,1069.47 1191.35,1074.49 1193.71,1078.13C1196.07,1081.78 1198.00,1085.12 1198.00,1085.56C1198.00,1085.99 1198.59,1087.05 1199.32,1087.92C1200.05,1088.79 1201.90,1092.42 1203.44,1096.00C1208.24,1107.14 1209.39,1109.45 1211.01,1111.21C1211.87,1112.15 1213.39,1115.30 1214.38,1118.21C1215.37,1121.12 1216.43,1124.17 1216.74,1125.00C1217.05,1125.83 1217.47,1127.38 1217.68,1128.46C1217.88,1129.53 1218.43,1130.66 1218.89,1130.96C1220.78,1132.19 1220.59,1155.74 1218.67,1157.66C1218.30,1158.03 1218.00,1159.14 1218.00,1160.13C1218.00,1161.84 1215.77,1167.74 1213.89,1171.00C1213.42,1171.83 1212.34,1174.04 1211.49,1175.92C1210.65,1177.80 1209.07,1179.96 1207.98,1180.73C1206.89,1181.49 1206.00,1182.99 1206.00,1184.06C1206.00,1185.13 1205.66,1186.01 1205.25,1186.02C1204.84,1186.03 1203.15,1188.27 1201.50,1191.01C1199.85,1193.74 1197.71,1196.24 1196.75,1196.56C1195.79,1196.87 1195.00,1197.51 1195.00,1197.98C1195.00,1198.44 1191.85,1202.08 1188.00,1206.07C1184.15,1210.06 1181.00,1213.44 1181.00,1213.58C1181.00,1214.19 1167.72,1226.54 1166.67,1226.91C1165.21,1227.41 1156.62,1234.23 1156.17,1235.25C1155.98,1235.66 1155.27,1236.00 1154.57,1236.00C1153.88,1236.00 1152.45,1236.96 1151.40,1238.14C1150.36,1239.31 1148.15,1240.92 1146.50,1241.70C1142.07,1243.80 1138.97,1245.63 1137.72,1246.88C1137.10,1247.50 1135.55,1248.00 1134.26,1248.00C1132.98,1248.00 1130.89,1248.68 1129.61,1249.52C1128.31,1250.37 1123.83,1251.30 1119.39,1251.62C1112.32,1252.15 1110.46,1251.87 1101.50,1248.98C1092.05,1245.93 1078.89,1239.64 1078.17,1237.83C1077.98,1237.37 1077.31,1237.00 1076.67,1237.00C1076.03,1237.00 1072.42,1234.97 1068.66,1232.50C1064.89,1230.02 1061.55,1228.00 1061.24,1228.00C1060.92,1228.00 1059.95,1227.38 1059.08,1226.61C1058.21,1225.85 1055.14,1224.00 1052.25,1222.51C1049.36,1221.01 1047.00,1219.49 1047.00,1219.13C1047.00,1218.77 1046.16,1218.03 1045.14,1217.49C1042.53,1216.10 1034.60,1210.83 1034.00,1210.08C1032.85,1208.65 1026.72,1205.17 1014.00,1198.76L1000.50,1191.95L989.29,1192.32C982.81,1192.54 977.48,1193.18 976.68,1193.85C975.91,1194.49 973.48,1195.19 971.27,1195.40C969.06,1195.61 966.19,1196.47 964.88,1197.30C963.57,1198.14 959.38,1199.77 955.58,1200.93C951.77,1202.09 947.99,1203.59 947.17,1204.27C946.36,1204.95 945.65,1205.36 945.60,1205.18C945.54,1205.00 944.23,1205.34 942.68,1205.93C941.14,1206.52 939.50,1207.00 939.05,1207.00C938.60,1207.00 933.79,1209.05 928.36,1211.56C922.94,1214.07 917.15,1216.74 915.50,1217.49C902.79,1223.26 892.05,1228.63 889.66,1230.40C882.44,1235.74 871.09,1248.30 868.54,1253.78C867.07,1256.92 865.45,1260.28 864.94,1261.24C864.42,1262.19 864.00,1263.79 864.00,1264.79C864.00,1265.78 863.61,1267.03 863.13,1267.55C861.82,1268.97 858.21,1282.39 856.01,1294.00C854.80,1300.40 851.12,1312.93 849.73,1315.40C849.08,1316.56 848.02,1319.75 847.38,1322.50C844.86,1333.25 836.51,1354.83 834.03,1357.00C833.71,1357.28 832.61,1358.85 831.57,1360.50C830.53,1362.15 827.93,1365.02 825.79,1366.87C823.65,1368.72 822.15,1370.48 822.44,1370.78C823.47,1371.81 820.74,1374.00 818.44,1374.00C817.16,1374.00 815.87,1374.40 815.56,1374.90C814.70,1376.29 807.14,1380.00 805.16,1380.00C804.18,1380.00 800.03,1380.86 795.94,1381.91C780.96,1385.76 761.17,1387.05 735.50,1385.84ZM780.00,1042.59C788.84,1041.92 812.03,1038.21 813.32,1037.26C813.97,1036.79 816.08,1036.29 818.00,1036.15C819.92,1036.02 822.62,1035.50 824.00,1035.01C825.38,1034.51 829.65,1033.19 833.50,1032.08C837.35,1030.96 844.33,1028.41 849.00,1026.40C853.67,1024.40 860.20,1021.76 863.50,1020.53C869.48,1018.31 880.43,1012.65 891.61,1006.00C894.85,1004.08 897.95,1002.33 898.50,1002.12C899.05,1001.91 901.30,1000.32 903.50,998.59C905.70,996.87 909.41,994.17 911.75,992.59C914.09,991.02 916.00,989.37 916.00,988.93C916.00,988.49 916.88,987.85 917.96,987.51C919.92,986.89 925.39,981.95 940.50,967.15C948.67,959.15 951.02,956.60 959.10,946.98C974.98,928.07 992.44,899.99 999.08,882.65C1000.17,879.82 1001.49,876.60 1002.01,875.50C1002.54,874.40 1003.63,871.02 1004.44,868.00C1005.24,864.98 1007.30,858.45 1009.00,853.50C1012.18,844.28 1015.14,832.04 1014.47,830.95C1014.26,830.62 1014.77,828.13 1015.59,825.42C1017.39,819.49 1017.73,815.52 1018.34,793.50C1018.98,770.14 1016.49,734.68 1013.97,731.50C1013.54,730.95 1012.95,728.48 1012.67,726.00C1012.38,723.52 1011.25,718.80 1010.16,715.50C1009.06,712.20 1007.38,706.80 1006.42,703.50C1003.69,694.13 995.54,674.12 991.97,668.00C991.48,667.17 989.44,663.58 987.43,660.00C985.42,656.42 982.18,651.02 980.23,648.00C971.66,634.67 971.12,633.87 968.49,630.72C967.93,630.05 965.90,627.48 963.99,625.00C956.38,615.17 934.50,592.93 925.14,585.50C912.83,575.75 903.45,568.99 900.00,567.39C898.08,566.50 896.27,565.46 896.00,565.07C894.31,562.70 868.35,548.06 865.74,548.01C865.32,548.01 860.82,546.00 855.74,543.56C850.66,541.12 845.15,538.81 843.50,538.42C841.85,538.04 840.05,537.39 839.50,536.98C838.20,536.01 831.86,534.55 830.25,534.86C829.56,534.98 829.00,534.62 829.00,534.04C829.00,533.47 828.14,533.00 827.08,533.00C826.02,533.00 820.29,531.82 814.33,530.39C808.37,528.95 801.92,527.64 800.00,527.49C798.08,527.33 792.45,526.39 787.50,525.39C780.23,523.93 773.69,523.59 753.50,523.61C728.34,523.63 718.17,524.63 703.50,528.54C700.75,529.28 696.25,530.15 693.50,530.48C688.92,531.04 679.40,533.82 674.50,536.04C673.40,536.53 669.58,537.90 666.00,539.07C662.42,540.24 656.58,542.54 653.00,544.17C643.42,548.56 629.57,555.41 629.00,556.05C628.73,556.36 624.51,558.76 619.64,561.37C614.76,563.99 610.26,566.56 609.64,567.09C609.01,567.62 605.58,570.30 602.00,573.06C598.42,575.82 593.52,579.75 591.11,581.79C588.69,583.83 585.32,586.48 583.61,587.68C579.98,590.22 559.11,611.60 554.00,618.01C552.08,620.43 548.79,624.29 546.69,626.59C544.60,628.90 540.41,634.72 537.39,639.54C534.37,644.35 530.54,650.26 528.88,652.67C525.20,658.02 512.00,684.25 512.00,686.21C512.00,686.98 511.34,688.49 510.53,689.56C509.72,690.63 509.05,692.42 509.03,693.55C509.01,694.68 508.60,696.03 508.11,696.55C507.12,697.60 502.66,710.67 501.55,715.75C501.16,717.54 500.50,719.00 500.09,719.00C499.67,719.00 499.29,719.56 499.24,720.25C499.19,720.94 498.66,723.98 498.07,727.00C492.75,754.25 491.00,771.12 491.54,790.17C492.03,807.83 493.46,823.71 494.97,828.50C495.50,830.15 496.14,833.30 496.40,835.50C497.11,841.55 500.39,854.28 504.26,866.00C508.36,878.40 507.34,876.10 526.25,915.73C526.84,916.96 528.05,918.76 528.95,919.73C529.85,920.70 532.11,923.75 533.97,926.50C538.54,933.25 549.03,946.31 550.67,947.30C551.40,947.74 552.00,948.82 552.00,949.70C552.00,951.44 585.68,985.00 587.44,985.00C588.02,985.01 589.85,986.26 591.50,987.79C593.15,989.31 596.08,991.65 598.00,992.98C599.92,994.31 601.73,995.67 602.00,995.99C602.62,996.71 618.38,1006.87 622.50,1009.20C628.16,1012.39 641.50,1018.85 648.00,1021.53C651.58,1023.00 654.95,1024.55 655.50,1024.97C656.05,1025.39 658.30,1026.28 660.50,1026.94C662.70,1027.60 665.40,1028.53 666.50,1029.00C672.24,1031.48 687.07,1035.97 691.00,1036.42C693.48,1036.71 698.01,1037.60 701.08,1038.41C704.14,1039.22 708.87,1040.15 711.58,1040.47C714.28,1040.78 717.39,1041.32 718.47,1041.66C723.98,1043.38 762.18,1043.96 780.00,1042.59Z"/></svg>
